Coordinates
version=1
nRows=14
nColumns=40
inDegrees=yes

Units are S.I. units (second, meters, Newtons, ...)
If the header above contains a line with 'inDegrees', this indicates whether rotational values are in degrees (yes) or radians (no).

endheader
time	pelvis_tilt	pelvis_list	pelvis_rotation	pelvis_tx	pelvis_ty	pelvis_tz	hip_flexion_r	hip_adduction_r	hip_rotation_r	knee_angle_r	knee_angle_r_beta	ankle_angle_r	subtalar_angle_r	mtp_angle_r	hip_flexion_l	hip_adduction_l	hip_rotation_l	knee_angle_l	knee_angle_l_beta	ankle_angle_l	subtalar_angle_l	mtp_angle_l	lumbar_extension	lumbar_bending	lumbar_rotation	arm_flex_r	arm_add_r	arm_rot_r	elbow_flex_r	pro_sup_r	wrist_flex_r	wrist_dev_r	arm_flex_l	arm_add_l	arm_rot_l	elbow_flex_l	pro_sup_l	wrist_flex_l	wrist_dev_l
      4.00000000	     -7.65361546	     -4.06065059	   -179.52539715	      0.23966006	      0.94324478	     -0.93521748	      2.97666417	    -11.25956866	    -15.15385874	     20.33018881	      0.35482873	      7.11474770	      0.00000000	      0.00000000	     -2.99827699	     -1.70160774	     -3.95023071	      6.79593374	      0.11861142	      3.11287076	      0.00000000	      0.00000000	    -31.29904167	     -4.07549102	     -0.95581592	      2.37084494	     -6.88699361	     -6.25377900	     45.61204632	     44.61232535	      0.00000000	      0.00000000	     10.41778998	    -12.71539318	     14.52797345	     43.84388255	     87.90820069	      0.00000000	      0.00000000
      4.00500000	     -7.61993009	     -4.06495328	   -179.40051882	      0.23973691	      0.94318973	     -0.93541398	      2.98655830	    -11.25632667	    -15.36006644	     20.31650826	      0.35458996	      7.14332929	      0.00000000	      0.00000000	     -2.91951264	     -1.72465086	     -3.72033506	      6.85994367	      0.11972860	      3.09312612	      0.00000000	      0.00000000	    -31.34089447	     -3.96860522	     -1.03593123	      2.30959684	     -6.94163108	     -6.28862262	     45.60202382	     44.61112704	      0.00000000	      0.00000000	     10.40202661	    -12.87598365	     14.47926331	     43.74523335	     87.90307913	      0.00000000	      0.00000000
      4.01000000	     -7.60481155	     -4.11968513	   -179.50554484	      0.23988211	      0.94308917	     -0.93612639	      3.15384124	    -11.28716514	    -15.14769843	     20.54748162	      0.35862121	      7.21848933	      0.00000000	      0.00000000	     -2.86286969	     -1.71285499	     -4.02337893	      6.90757635	      0.12055995	      3.09488641	      0.00000000	      0.00000000	    -31.42478857	     -4.03466361	     -0.95599693	      2.25794608	     -7.02739397	     -6.32908567	     45.68633683	     44.64377994	      0.00000000	      0.00000000	     10.42229753	    -12.94537247	     14.28083476	     43.50236222	     87.89846382	      0.00000000	      0.00000000
      4.01500000	     -7.57379091	     -4.13041027	   -179.37286189	      0.23995438	      0.94302232	     -0.93630491	      3.15307237	    -11.29017919	    -15.32846128	     20.53184007	      0.35834821	      7.24686925	      0.00000000	      0.00000000	     -2.78161031	     -1.72341347	     -3.79915842	      6.97712424	      0.12177379	      3.07481111	      0.00000000	      0.00000000	    -31.45862221	     -3.93281971	     -1.03118854	      2.19611471	     -7.08571482	     -6.36532167	     45.67274281	     44.64164149	      0.00000000	      0.00000000	     10.41342882	    -13.09144629	     14.22949108	     43.40931978	     87.89346416	      0.00000000	      0.00000000
      4.02000000	     -7.53416995	     -4.21936200	   -179.49265040	      0.24012646	      0.94287352	     -0.93702437	      3.33122692	    -11.34080556	    -15.00274581	     20.72243322	      0.36167469	      7.32405204	      0.00000000	      0.00000000	     -2.69533148	     -1.66959737	     -4.10602486	      7.03849729	      0.12284495	      3.07844364	      0.00000000	      0.00000000	    -31.50532524	     -4.03827601	     -0.92283424	      2.14520142	     -7.20384300	     -6.42406882	     45.73998701	     44.66757023	      0.00000000	      0.00000000	     10.44803168	    -13.17605355	     14.01212582	     43.20691166	     87.89256891	      0.00000000	      0.00000000
      4.02500000	     -7.50327608	     -4.23267290	   -179.36345624	      0.24021339	      0.94281894	     -0.93724765	      3.34759828	    -11.34358325	    -15.17423458	     20.71731515	      0.36158536	      7.35215973	      0.00000000	      0.00000000	     -2.60775385	     -1.69005081	     -3.88084724	      7.11239579	      0.12413472	      3.05309165	      0.00000000	      0.00000000	    -31.54752018	     -3.93235114	     -0.99188242	      2.08114284	     -7.26359380	     -6.46306803	     45.72517432	     44.66520129	      0.00000000	      0.00000000	     10.42677473	    -13.33770353	     13.94822167	     43.09651619	     87.88667367	      0.00000000	      0.00000000
      4.03000000	     -7.44057113	     -4.34635547	   -179.49665799	      0.24041398	      0.94264386	     -0.93791771	      3.57728923	    -11.43279384	    -14.81866865	     20.94376498	      0.36553766	      7.43896993	      0.00000000	      0.00000000	     -2.47537278	     -1.59902899	     -4.25388464	      7.20460249	      0.12574403	      3.03632003	      0.00000000	      0.00000000	    -31.57742505	     -4.06255588	     -0.89069942	      2.04410751	     -7.38960916	     -6.53114914	     45.79716586	     44.69168431	      0.00000000	      0.00000000	     10.46607904	    -13.39943253	     13.69841996	     42.87388887	     87.88576587	      0.00000000	      0.00000000
      4.03500000	     -7.39876455	     -4.35372002	   -179.33523000	      0.24057270	      0.94260180	     -0.93804039	      3.59145760	    -11.43802971	    -15.07812288	     20.91271001	      0.36499565	      7.46835396	      0.00000000	      0.00000000	     -2.36197702	     -1.61615424	     -4.02678531	      7.26868079	      0.12686241	      3.01267022	      0.00000000	      0.00000000	    -31.63989492	     -3.92248983	     -0.99524726	      1.97267880	     -7.44153881	     -6.56748836	     45.77091487	     44.68648912	      0.00000000	      0.00000000	     10.45516965	    -13.52758687	     13.65980835	     42.79538080	     87.88128190	      0.00000000	      0.00000000
      4.04000000	     -7.17124548	     -4.39807653	   -179.49527593	      0.24068623	      0.94205157	     -0.93901508	      4.06226145	    -11.45170510	    -14.72291498	     21.27190913	      0.37126485	      7.74995020	      0.00000000	      0.00000000	     -2.04823265	     -1.62995467	     -4.21946135	      7.43890718	      0.12983342	      3.12786163	      0.00000000	      0.00000000	    -31.44195912	     -4.03060902	     -0.77706857	      1.73271764	     -7.59040350	     -6.62952105	     46.06386288	     44.72902101	      0.00000000	      0.00000000	     10.47726849	    -13.57275780	     13.28003017	     42.45870467	     87.89447575	      0.00000000	      0.00000000
      4.04500000	     -7.15336184	     -4.39923180	   -179.36768073	      0.24075127	      0.94202189	     -0.93925618	      4.05847093	    -11.44730717	    -14.96379501	     21.26415250	      0.37112947	      7.75257724	      0.00000000	      0.00000000	     -1.97724030	     -1.65381659	     -3.98533748	      7.50592314	      0.13100307	      3.10452835	      0.00000000	      0.00000000	    -31.49375272	     -3.89847789	     -0.84374508	      1.68950268	     -7.66252862	     -6.67640074	     46.04294088	     44.72341350	      0.00000000	      0.00000000	     10.46211055	    -13.75278396	     13.22892509	     42.37398678	     87.88741702	      0.00000000	      0.00000000
      4.05000000	     -7.18583897	     -4.47944860	   -179.47312078	      0.24089735	      0.94201073	     -0.93993649	      4.16118707	    -11.49159955	    -14.70079357	     21.46270455	      0.37459486	      7.73193411	      0.00000000	      0.00000000	     -1.95767869	     -1.61778391	     -4.31646564	      7.59243039	      0.13251291	      3.09043033	      0.00000000	      0.00000000	    -31.62228467	     -3.96532635	     -0.73522096	      1.70827391	     -7.81590244	     -6.78340761	     46.05319454	     44.73361772	      0.00000000	      0.00000000	     10.47090815	    -13.87151246	     13.02432715	     42.22459677	     87.87942923	      0.00000000	      0.00000000
      4.05500000	     -7.16581056	     -4.56859306	   -179.45917249	      0.24102751	      0.94195851	     -0.94034183	      4.22495569	    -11.55508264	    -14.55849179	     21.53485568	      0.37585414	      7.79681400	      0.00000000	      0.00000000	     -1.86241546	     -1.55282483	     -4.36735105	      7.70078803	      0.13440411	      3.06407736	      0.00000000	      0.00000000	    -31.68676315	     -3.98020576	     -0.74040670	      1.65200312	     -7.93240805	     -6.88104066	     46.03258678	     44.74010861	      0.00000000	      0.00000000	     10.47202235	    -14.01414451	     12.86642086	     42.11724278	     87.87717031	      0.00000000	      0.00000000
      4.06000000	     -7.13618940	     -4.58064690	   -179.31238648	      0.24111797	      0.94191311	     -0.94055951	      4.22590989	    -11.56460837	    -14.79135213	     21.51474673	      0.37550317	      7.82499485	      0.00000000	      0.00000000	     -1.76555012	     -1.56389799	     -4.16748825	      7.76848341	      0.13558561	      3.03934992	      0.00000000	      0.00000000	    -31.73076019	     -3.84966454	     -0.79857543	      1.60205406	     -7.99964336	     -6.92751176	     46.01039288	     44.73451839	      0.00000000	      0.00000000	     10.42893695	    -14.19677463	     12.80533638	     42.00737529	     87.86966027	      0.00000000	      0.00000000
      4.06500000	     -7.01207334	     -4.68706339	   -179.50067532	      0.24123660	      0.94158031	     -0.94153667	      4.56526042	    -11.62409226	    -14.36939800	     21.80999167	      0.38065616	      8.02424249	      0.00000000	      0.00000000	     -1.58277212	     -1.49633325	     -4.40949411	      7.87425101	      0.13743161	      3.02011559	      0.00000000	      0.00000000	    -31.66883971	     -4.00941538	     -0.63150082	      1.44316489	     -8.17851968	     -6.89659505	     46.19811958	     44.66114199	      0.00000000	      0.00000000	     10.39294743	    -14.27916629	     12.41573516	     41.87125165	     87.69924312	      0.00000000	      0.00000000
